<?xml version="1.0" encoding="utf-8"?>
<!-- Generator: Adobe Illustrator 22.0.1, SVG Export Plug-In . SVG Version: 6.00 Build 0)  -->
<svg version="1.1" id="Layer_1" xmlns="http://www.w3.org/2000/svg" xmlns:xlink="http://www.w3.org/1999/xlink" x="0px" y="0px"
	 viewBox="0 0 288 288" style="enable-background:new 0 0 288 288;" xml:space="preserve">
<style type="text/css">
	.st0{fill:#FFFFFF;}
	.st1{fill:#E5673E;}
</style>
<g>
	<path class="st0" d="M170.2,75.6c-9.4,10.7-18.1,18.8-24.9,24.5c-10.7,9.1-17.1,12.8-21.4,15c-4.3,2.2-8.3,3.9-11.8,5.1
		c0.7,1.4,0.9,2.9,0.7,4.5c10.5,0.8,18.5,2.8,24.6,5c-0.1,0.1-0.1,0.3-0.2,0.4c-0.4,0.7-0.7,1.4-1.1,2.2c-9.1-3.6-17.8-4.8-23.9-5.4
		c-1,2.7-3.2,5.2-6.3,7.1c-5.8,3.5-12.6,2.9-15.2-1.3c-2.5-4.2,0.2-10.5,6-14c4.8-2.9,10.2-3,13.4-0.6c6.6-2.5,15.1-6.5,24-12.9
		c2-1.5,4.5-3.4,9.1-7.5c6.6-5.8,15.5-14.4,25.7-26.1C169.1,73,169.5,74.4,170.2,75.6 M196.2,162.9c-2.7-3.3-7.5-3.9-12.2-2.1
		c-5.1-8.5-11.4-22.8-12.5-41.4c-1-17,3.3-30.5,6.5-38.8c-1.1-0.2-2.1-0.5-3.1-0.9c-3.3,8.3-7.5,22-6.8,39.1
		c0.8,19.6,7.7,34.7,12.8,43.5c-0.5,0.3-0.9,0.7-1.4,1c-0.2,0.2-0.5,0.4-0.7,0.6c-5.2-6.8-14.5-18.3-27.1-26.7
		c-1.8-1.3-4.5-3.1-8.3-5c-0.4,0.9-0.8,1.9-1.2,2.8c13.6,7.4,27.4,23,33.9,32c-0.4,0.7-0.8,1.4-1.1,2.1c-5.4-0.6-15.5-1-26.7,4
		c-8.3,3.8-13.9,8.9-17.3,12.7c0.3,0.2,0.5,0.4,0.8,0.7c1.7,1.6,2.9,3.5,3.7,5.6c3.4-4.4,8.7-10.7,17-15.6c6.9-4,16.7-4.8,21.6-4.6
		c-0.5,2.8,0,5.5,1.7,7.6c3.6,4.3,11.1,4.1,16.7-0.5C198.1,174.6,199.8,167.3,196.2,162.9"/>
	<path class="st1" d="M196.3,57.5c-4.1-5.4-13.1-5.5-20.1-0.2c-5.1,3.8-7.7,9.4-7.3,14.3c0.1,1.4,0.5,2.8,1.2,4
		c0.1,0.2,0.3,0.4,0.4,0.6c-8.9,12.1-22.5,31.8-33.3,53.5c-0.1,0.1-0.1,0.3-0.2,0.4c-0.4,0.7-0.7,1.4-1.1,2.2
		c-9,18.6-15.1,35.8-19.2,50.9c-4,1-8,3.3-11.3,6.7c-7.8,8.2-8.5,20.1-1.8,26.5c6.8,6.4,18.6,4.9,26.3-3.3
		c5.8-6.2,7.7-14.4,5.4-20.8c-0.8-2.1-2-4-3.7-5.6c-0.2-0.2-0.5-0.5-0.8-0.7c-1.4-1.2-3.1-2-4.8-2.6c4.1-17.6,8.2-30.2,16-48.2
		c0.4-0.9,0.8-1.8,1.2-2.8c0,0,0,0,0-0.1c9.4-21.7,20.7-39.3,30.6-52.9c0.3,0.1,0.6,0.3,0.8,0.4c1,0.4,2,0.7,3.1,0.9
		c4.1,0.6,8.9-0.7,13.1-3.8C198,71.6,200.4,62.9,196.3,57.5"/>
</g>
</svg>
